<svg width="46" height="46" viewBox="0 0 46 46" fill="none" xmlns="http://www.w3.org/2000/svg">
<g clip-path="url(#clip0_130_222)">
<path d="M40.25 32.5836H19.1667V36.417C19.1667 36.9253 18.9647 37.4128 18.6053 37.7722C18.2458 38.1317 17.7583 38.3336 17.25 38.3336C16.7417 38.3336 16.2542 38.1317 15.8947 37.7722C15.5353 37.4128 15.3333 36.9253 15.3333 36.417V32.5836H11.5V36.417C11.5 36.9253 11.2981 37.4128 10.9386 37.7722C10.5792 38.1317 10.0917 38.3336 9.58333 38.3336C9.075 38.3336 8.58749 38.1317 8.22805 37.7722C7.8686 37.4128 7.66667 36.9253 7.66667 36.417V32.5836H5.75C4.22501 32.5836 2.76247 33.1894 1.68414 34.2678C0.605802 35.3461 0 36.8086 0 38.3336C0 39.8586 0.605802 41.3211 1.68414 42.3995C2.76247 43.4778 4.22501 44.0836 5.75 44.0836H40.25C41.775 44.0836 43.2375 43.4778 44.3159 42.3995C45.3942 41.3211 46 39.8586 46 38.3336C46 36.8086 45.3942 35.3461 44.3159 34.2678C43.2375 33.1894 41.775 32.5836 40.25 32.5836Z" fill="#005C53"/>
<path d="M40.25 17.25H19.1667V21.0833C19.1667 21.5917 18.9647 22.0792 18.6053 22.4386C18.2458 22.7981 17.7583 23 17.25 23C16.7417 23 16.2542 22.7981 15.8947 22.4386C15.5353 22.0792 15.3333 21.5917 15.3333 21.0833V17.25H11.5V21.0833C11.5 21.5917 11.2981 22.0792 10.9386 22.4386C10.5792 22.7981 10.0917 23 9.58333 23C9.075 23 8.58749 22.7981 8.22805 22.4386C7.8686 22.0792 7.66667 21.5917 7.66667 21.0833V17.25H5.75C4.22501 17.25 2.76247 17.8558 1.68414 18.9341C0.605802 20.0125 0 21.475 0 23C0 24.525 0.605802 25.9875 1.68414 27.0659C2.76247 28.1442 4.22501 28.75 5.75 28.75H40.25C41.775 28.75 43.2375 28.1442 44.3159 27.0659C45.3942 25.9875 46 24.525 46 23C46 21.475 45.3942 20.0125 44.3159 18.9341C43.2375 17.8558 41.775 17.25 40.25 17.25Z" fill="#005C53"/>
<path d="M40.25 1.91638H19.1667V5.74972C19.1667 6.25805 18.9647 6.74556 18.6053 7.105C18.2458 7.46445 17.7583 7.66638 17.25 7.66638C16.7417 7.66638 16.2542 7.46445 15.8947 7.105C15.5353 6.74556 15.3333 6.25805 15.3333 5.74972V1.91638H11.5V5.74972C11.5 6.25805 11.2981 6.74556 10.9386 7.105C10.5792 7.46445 10.0917 7.66638 9.58333 7.66638C9.075 7.66638 8.58749 7.46445 8.22805 7.105C7.8686 6.74556 7.66667 6.25805 7.66667 5.74972V1.91638H5.75C4.22501 1.91638 2.76247 2.52218 1.68414 3.60052C0.605802 4.67885 0 6.14139 0 7.66638C0 9.19138 0.605802 10.6539 1.68414 11.7322C2.76247 12.8106 4.22501 13.4164 5.75 13.4164H40.25C41.775 13.4164 43.2375 12.8106 44.3159 11.7322C45.3942 10.6539 46 9.19138 46 7.66638C46 6.14139 45.3942 4.67885 44.3159 3.60052C43.2375 2.52218 41.775 1.91638 40.25 1.91638Z" fill="#005C53"/>
</g>
<defs>
<clipPath id="clip0_130_222">
<rect width="46" height="46" fill="white"/>
</clipPath>
</defs>
</svg>
