<svg width="30" height="31" viewBox="0 0 30 31" fill="none" xmlns="http://www.w3.org/2000/svg">
<g clip-path="url(#clip0_142_88)">
<path d="M11.2063 30.5H5C3.67392 30.5 2.40215 29.9732 1.46447 29.0355C0.526784 28.0979 0 26.8261 0 25.5V19.25C0 17.9239 0.526784 16.6521 1.46447 15.7145C2.40215 14.7768 3.67392 14.25 5 14.25H16.0713C16.7478 14.2503 17.4127 14.4253 18.0018 14.7579C18.5909 15.0905 19.0841 15.5696 19.4337 16.1488L23.455 11.73C23.7876 11.3642 24.1891 11.0676 24.6364 10.8571C25.0837 10.6465 25.5681 10.5262 26.0619 10.503C26.5558 10.4798 27.0494 10.5541 27.5144 10.7218C27.9795 10.8894 28.407 11.1471 28.7725 11.48C29.5017 12.1499 29.9387 13.0794 29.9894 14.0683C30.0402 15.0572 29.7006 16.0265 29.0438 16.7675L20.5437 26.3137C19.3701 27.63 17.9316 28.6834 16.3224 29.4048C14.7132 30.1263 12.9698 30.4995 11.2063 30.5ZM5 16.75C4.33696 16.75 3.70107 17.0134 3.23223 17.4822C2.76339 17.9511 2.5 18.587 2.5 19.25V25.5C2.5 26.163 2.76339 26.7989 3.23223 27.2678C3.70107 27.7366 4.33696 28 5 28H11.2063C12.6162 27.9994 14.01 27.7009 15.2965 27.124C16.583 26.5471 17.733 25.7049 18.6713 24.6525L27.1775 15.105C27.3984 14.8562 27.5127 14.5307 27.4958 14.1985C27.479 13.8662 27.3324 13.5539 27.0875 13.3287C26.8385 13.1049 26.5121 12.987 26.1775 13C26.0117 13.007 25.8489 13.047 25.6986 13.1176C25.5484 13.1882 25.4137 13.288 25.3025 13.4113L19.77 19.5C19.5271 20.1722 19.1063 20.7659 18.5524 21.2176C17.9985 21.6694 17.3323 21.9622 16.625 22.065L10.1737 22.9875C9.84554 23.0346 9.51208 22.9493 9.24672 22.7506C8.98135 22.5518 8.80583 22.2557 8.75875 21.9275C8.71167 21.5993 8.79691 21.2658 8.99569 21.0005C9.19448 20.7351 9.49054 20.5596 9.81875 20.5125L16.2713 19.5912C16.6294 19.5412 16.9552 19.357 17.1829 19.076C17.4105 18.795 17.523 18.438 17.4976 18.0773C17.4722 17.7165 17.3108 17.3788 17.0461 17.1325C16.7813 16.8861 16.4329 16.7494 16.0713 16.75H5ZM13.75 11.8425C13.1834 11.844 12.6334 11.6517 12.1913 11.2975C10.0513 9.58 7.5 7 7.5 4.5C7.46931 3.47296 7.8466 2.47556 8.54935 1.72596C9.2521 0.976354 10.2231 0.535565 11.25 0.5C12.1842 0.503639 13.0805 0.869772 13.75 1.52125C14.4195 0.869772 15.3158 0.503639 16.25 0.5C17.2769 0.535565 18.2479 0.976354 18.9506 1.72596C19.6534 2.47556 20.0307 3.47296 20 4.5C20 7 17.4488 9.58 15.3075 11.2987C14.8655 11.6522 14.316 11.8441 13.75 11.8425V11.8425ZM11.25 3C10.8867 3.03645 10.5522 3.21402 10.3184 3.49453C10.0847 3.77504 9.97034 4.13607 10 4.5C10 5.625 11.4387 7.4875 13.7575 9.34875C16.0612 7.4875 17.5 5.625 17.5 4.5C17.5297 4.13607 17.4153 3.77504 17.1816 3.49453C16.9478 3.21402 16.6133 3.03645 16.25 3C15.8867 3.03645 15.5522 3.21402 15.3184 3.49453C15.0847 3.77504 14.9703 4.13607 15 4.5C15 4.83152 14.8683 5.14946 14.6339 5.38388C14.3995 5.6183 14.0815 5.75 13.75 5.75C13.4185 5.75 13.1005 5.6183 12.8661 5.38388C12.6317 5.14946 12.5 4.83152 12.5 4.5C12.5297 4.13607 12.4153 3.77504 12.1816 3.49453C11.9478 3.21402 11.6133 3.03645 11.25 3V3Z" fill="#005C53"/>
</g>
<defs>
<clipPath id="clip0_142_88">
<rect width="30" height="30" fill="white" transform="translate(0 0.5)"/>
</clipPath>
</defs>
</svg>
