<svg width="46" height="46" viewBox="0 0 46 46" fill="none" xmlns="http://www.w3.org/2000/svg">
<g clip-path="url(#clip0_130_202)">
<path d="M31.723 23C36.141 19.3921 39.1339 14.3322 40.1679 8.72275C40.3255 7.64877 40.25 6.55344 39.9464 5.51128C39.6427 4.46912 39.1182 3.50459 38.4084 2.68333C37.6874 1.84371 36.7939 1.1694 35.7887 0.706338C34.7835 0.243278 33.6903 0.00235949 32.5836 0L13.4265 0C12.3182 0.00060153 11.223 0.240686 10.216 0.703818C9.20903 1.16695 8.31401 1.8422 7.59221 2.68333C6.88057 3.50611 6.3551 4.47293 6.05175 5.51762C5.7484 6.56231 5.67434 7.6602 5.83463 8.73617C6.86371 14.3415 9.85381 19.3977 14.2699 23C9.85375 26.6036 6.86427 31.6613 5.83654 37.2677C5.67657 38.3429 5.75061 39.44 6.05361 40.4839C6.35662 41.5279 6.88144 42.4942 7.59221 43.3167C8.31401 44.1578 9.20903 44.833 10.216 45.2962C11.223 45.7593 12.3182 45.9994 13.4265 46H32.5836C33.6919 45.999 34.787 45.7588 35.7939 45.2957C36.8008 44.8326 37.6959 44.1575 38.418 43.3167C39.129 42.4942 39.6542 41.5281 39.9579 40.4842C40.2615 39.4403 40.3364 38.3432 40.1775 37.2677C39.1387 31.6604 36.1425 26.6041 31.723 23ZM34.1706 39.4048C33.9954 39.6647 33.7591 39.8777 33.4824 40.025C33.2057 40.1724 32.8971 40.2496 32.5836 40.25H13.417C13.1032 40.2502 12.7942 40.1733 12.517 40.0262C12.2399 39.879 12.0032 39.6661 11.8275 39.4061C11.6519 39.1461 11.5428 38.8469 11.5098 38.5349C11.4768 38.2229 11.5209 37.9075 11.6383 37.6165C13.6311 33.3267 16.6613 29.601 20.455 26.7758L21.7966 25.7044C22.1358 25.4346 22.5564 25.2878 22.9898 25.2878C23.4231 25.2878 23.8437 25.4346 24.1829 25.7044L25.5054 26.7605C29.2988 29.5957 32.3338 33.3233 34.3412 37.6127C34.4617 37.9025 34.5091 38.2175 34.4794 38.53C34.4497 38.8425 34.3436 39.1428 34.1706 39.4048ZM29.4192 36.4167H16.5775C18.2996 33.8843 20.4163 31.6441 22.847 29.7812L23.0003 29.6547L23.1364 29.7601C25.5662 31.6364 27.6863 33.8826 29.4192 36.4167Z" fill="#005C53"/>
</g>
<defs>
<clipPath id="clip0_130_202">
<rect width="46" height="46" fill="white"/>
</clipPath>
</defs>
</svg>
