<svg width="24" height="25" viewBox="0 0 24 25" fill="none" xmlns="http://www.w3.org/2000/svg">
<path d="M6.41011 9.33334H17.5901C17.7879 9.33417 17.981 9.39363 18.145 9.50419C18.3089 9.61475 18.4365 9.77146 18.5114 9.95449C18.5863 10.1375 18.6053 10.3387 18.5659 10.5325C18.5265 10.7263 18.4305 10.9041 18.2901 11.0433L12.7101 16.6233C12.6172 16.7171 12.5066 16.7915 12.3847 16.8422C12.2628 16.893 12.1321 16.9191 12.0001 16.9191C11.8681 16.9191 11.7374 16.893 11.6155 16.8422C11.4937 16.7915 11.3831 16.7171 11.2901 16.6233L5.71011 11.0433C5.56969 10.9041 5.47372 10.7263 5.43434 10.5325C5.39495 10.3387 5.41392 10.1375 5.48885 9.95449C5.56377 9.77146 5.69129 9.61475 5.85527 9.50419C6.01926 9.39363 6.21234 9.33417 6.41011 9.33334Z" fill="white"/>
</svg>
