<svg width="25" height="25" viewBox="0 0 25 25" fill="none" xmlns="http://www.w3.org/2000/svg">
<g clip-path="url(#clip0_130_148)">
<path d="M9.465 24.3333H4.5C3.43913 24.3333 2.42172 23.9119 1.67157 23.1618C0.921427 22.4116 0.5 21.3942 0.5 20.3333V15.3333C0.5 14.2725 0.921427 13.2551 1.67157 12.5049C2.42172 11.7548 3.43913 11.3333 4.5 11.3333H13.357C13.8982 11.3336 14.4302 11.4736 14.9014 11.7397C15.3727 12.0058 15.7673 12.389 16.047 12.8523L19.264 9.31734C19.5301 9.02473 19.8512 8.78743 20.2091 8.619C20.5669 8.45058 20.9545 8.35432 21.3496 8.33575C21.7446 8.31718 22.1395 8.37664 22.5116 8.51075C22.8836 8.64487 23.2256 8.85099 23.518 9.11734C24.1014 9.65327 24.451 10.3968 24.4916 11.188C24.5321 11.9791 24.2605 12.7545 23.735 13.3473L16.935 20.9843C15.9961 22.0374 14.8453 22.8801 13.5579 23.4572C12.2706 24.0344 10.8758 24.3329 9.465 24.3333ZM4.5 13.3333C3.96957 13.3333 3.46086 13.5441 3.08579 13.9191C2.71071 14.2942 2.5 14.8029 2.5 15.3333V20.3333C2.5 20.8638 2.71071 21.3725 3.08579 21.7476C3.46086 22.1226 3.96957 22.3333 4.5 22.3333H9.465C10.5929 22.3329 11.708 22.0941 12.7372 21.6326C13.7664 21.1711 14.6864 20.4973 15.437 19.6553L22.242 12.0173C22.4187 11.8183 22.5101 11.5579 22.4967 11.2921C22.4832 11.0263 22.3659 10.7765 22.17 10.5963C21.9708 10.4173 21.7096 10.3229 21.442 10.3333C21.3093 10.339 21.1791 10.3709 21.0589 10.4274C20.9387 10.4839 20.831 10.5638 20.742 10.6623L16.316 15.5333C16.1217 16.0711 15.785 16.546 15.3419 16.9074C14.8988 17.2688 14.3659 17.5031 13.8 17.5853L8.639 18.3233C8.37644 18.361 8.10966 18.2928 7.89737 18.1338C7.68508 17.9748 7.54466 17.7379 7.507 17.4753C7.46934 17.2128 7.53752 16.946 7.69656 16.7337C7.85559 16.5214 8.09244 16.381 8.355 16.3433L13.517 15.6063C13.8035 15.5663 14.0642 15.419 14.2463 15.1941C14.4284 14.9693 14.5184 14.6838 14.4981 14.3952C14.4778 14.1065 14.3487 13.8364 14.1368 13.6393C13.925 13.4422 13.6463 13.3329 13.357 13.3333H4.5ZM11.5 9.40734C11.0468 9.40856 10.6067 9.25471 10.253 8.97134C8.541 7.59734 6.5 5.53334 6.5 3.53334C6.47545 2.71171 6.77728 1.91379 7.33948 1.31411C7.90168 0.714427 8.67849 0.361796 9.5 0.333344C10.2473 0.336254 10.9644 0.629161 11.5 1.15034C12.0356 0.629161 12.7527 0.336254 13.5 0.333344C14.3215 0.361796 15.0983 0.714427 15.6605 1.31411C16.2227 1.91379 16.5246 2.71171 16.5 3.53334C16.5 5.53334 14.459 7.59734 12.746 8.97234C12.3924 9.25514 11.9528 9.40862 11.5 9.40734ZM9.5 2.33334C9.20935 2.36251 8.94175 2.50456 8.75475 2.72897C8.56775 2.95337 8.47627 3.2422 8.5 3.53334C8.5 4.43334 9.651 5.92334 11.506 7.41234C13.349 5.92334 14.5 4.43334 14.5 3.53334C14.5237 3.2422 14.4323 2.95337 14.2453 2.72897C14.0582 2.50456 13.7906 2.36251 13.5 2.33334C13.2094 2.36251 12.9418 2.50456 12.7547 2.72897C12.5677 2.95337 12.4763 3.2422 12.5 3.53334C12.5 3.79856 12.3946 4.05291 12.2071 4.24045C12.0196 4.42799 11.7652 4.53334 11.5 4.53334C11.2348 4.53334 10.9804 4.42799 10.7929 4.24045C10.6054 4.05291 10.5 3.79856 10.5 3.53334C10.5237 3.2422 10.4323 2.95337 10.2453 2.72897C10.0582 2.50456 9.79065 2.36251 9.5 2.33334Z" fill="#DEEFE7"/>
</g>
<defs>
<clipPath id="clip0_130_148">
<rect width="24" height="24" fill="white" transform="translate(0.5 0.333344)"/>
</clipPath>
</defs>
</svg>
