<svg width="24" height="24" viewBox="0 0 24 24" fill="none" xmlns="http://www.w3.org/2000/svg">
<g clip-path="url(#clip0_162_197)">
<path d="M10.0468 6.81821C8.26152 6.48664 6 5.56075 6 3C6 2.73478 5.89464 2.48043 5.70711 2.29289C5.51957 2.10536 5.26522 2 5 2C4.73478 2 4.48043 2.10536 4.29289 2.29289C4.10536 2.48043 4 2.73478 4 3C3.97851 3.75341 4.12307 4.50232 4.42344 5.1936C4.70402 5.83935 5.11413 6.42004 5.62782 6.9H5.738V7L5.67187 7.07502C5.64383 7.05029 5.61607 7.02529 5.58859 7H4C2.93913 7 1.92172 7.42143 1.17157 8.17157C0.421427 8.92172 0 9.93913 0 11C0 11.5304 0.210714 12.0391 0.585786 12.4142C0.960859 12.7893 1.46957 13 2 13L10.0468 6.81821ZM10.0468 6.81821C10.06 6.84224 10.0734 6.86621 10.0869 6.89013L10.174 6.841M10.0468 6.81821L10.174 6.841M10.174 6.841L10.191 6.74246C10.1646 6.73791 10.1381 6.73323 10.1115 6.72842L10.174 6.841ZM10.9 12.9H2C1.49609 12.9 1.01282 12.6998 0.656497 12.3435C0.300178 11.9872 0.1 11.5039 0.1 11C0.1 9.96566 0.510892 8.97368 1.24228 8.24228C1.97368 7.51089 2.96566 7.1 4 7.1H5.738H6.00267L5.80413 6.92498C5.24973 6.43628 4.80967 5.83157 4.51515 5.15375C4.22064 4.47592 4.07889 3.74159 4.09996 3.00285L4.1 3.00285V3C4.1 2.76131 4.19482 2.53239 4.3636 2.3636C4.53239 2.19482 4.76131 2.1 5 2.1C5.23869 2.1 5.46761 2.19482 5.6364 2.3636C5.80518 2.53239 5.9 2.76131 5.9 3C5.9 4.34714 6.51161 5.25817 7.35215 5.86806C8.18814 6.47466 9.24896 6.78292 10.157 6.93954L10.3646 6.97535L10.2611 6.79187C9.60341 5.62574 9.20723 4.33053 9.1 2.99604C9.10105 2.22834 9.40647 1.49231 9.94939 0.94939C10.4932 0.405535 11.2309 0.1 12 0.1C12.7691 0.1 13.5068 0.405535 14.0506 0.94939C14.5935 1.49231 14.899 2.22834 14.9 2.99604C14.7928 4.33053 14.3966 5.62574 13.7389 6.79187L13.6354 6.97535L13.843 6.93954C14.751 6.78292 15.8119 6.47466 16.6479 5.86806C17.4884 5.25817 18.1 4.34714 18.1 3C18.1 2.7613 18.1948 2.53239 18.3636 2.3636C18.5324 2.19482 18.7613 2.1 19 2.1C19.2387 2.1 19.4676 2.19482 19.6364 2.3636C19.8052 2.53239 19.9 2.7613 19.9 3L19.9 3.00285C19.9211 3.74159 19.7794 4.47592 19.4848 5.15375C19.1903 5.83157 18.7503 6.43628 18.1959 6.92498L17.9973 7.1H18.262H20C21.0343 7.1 22.0263 7.51089 22.7577 8.24228C23.4891 8.97368 23.9 9.96566 23.9 11C23.9 11.5039 23.6998 11.9872 23.3435 12.3435C22.9872 12.6998 22.5039 12.9 22 12.9H13.1V8.957V8.84896L12.9923 8.8573C12.6579 8.88317 12.3257 8.9 12 8.9C11.6743 8.9 11.3421 8.88317 11.0077 8.8573L10.9 8.84896V8.957V12.9ZM13.8885 6.72842C13.8619 6.73323 13.8354 6.73791 13.809 6.74246L13.826 6.841L13.9131 6.89013C13.9266 6.86621 13.94 6.84224 13.9532 6.81821C15.7385 6.48664 18 5.56075 18 3C18 2.73478 18.1054 2.48043 18.2929 2.29289C18.4804 2.10536 18.7348 2 19 2C19.2652 2 19.5196 2.10536 19.7071 2.29289C19.8946 2.48043 20 2.73478 20 3C20.0215 3.75341 19.8769 4.50232 19.5766 5.1936C19.296 5.83935 18.8859 6.42004 18.3722 6.9H18.262V7L18.3281 7.07502C18.3562 7.05029 18.3839 7.02529 18.4114 7L13.8885 6.72842ZM10.9 3H10.8994L10.9006 3.01129C11.0229 4.0879 11.3679 5.12729 11.9136 6.06336L12 6.21155L12.0864 6.06336C12.6321 5.12729 12.9771 4.0879 13.0994 3.01129L13.1 3.01136V3C13.1 2.70826 12.9841 2.42847 12.7778 2.22218C12.5715 2.01589 12.2917 1.9 12 1.9C11.7083 1.9 11.4285 2.01589 11.2222 2.22218C11.0159 2.42847 10.9 2.70826 10.9 3ZM2.1 15.1H10.9V23.9H7C5.70044 23.9 4.45411 23.3838 3.53518 22.4648C2.61625 21.5459 2.1 20.2996 2.1 19V15.1ZM17 23.9H13.1V15.1H21.9V19C21.9 19.6435 21.7733 20.2807 21.527 20.8751C21.2808 21.4696 20.9198 22.0098 20.4648 22.4648C20.0098 22.9198 19.4696 23.2808 18.8751 23.527C18.2807 23.7733 17.6435 23.9 17 23.9Z" fill="#005C53" stroke="#DBF227" stroke-width="0.2"/>
</g>
<defs>
<clipPath id="clip0_162_197">
<rect width="24" height="24" fill="white"/>
</clipPath>
</defs>
</svg>
