<svg width="30" height="30" viewBox="0 0 30 30" fill="none" xmlns="http://www.w3.org/2000/svg">
<g clip-path="url(#clip0_142_135)">
<path d="M23.2265 2.67591L15.3952 0.0646614C15.1388 -0.02074 14.8617 -0.02074 14.6052 0.0646614L6.77275 2.67591C5.52786 3.08973 4.44502 3.88529 3.67804 4.94959C2.91107 6.01389 2.49896 7.2928 2.50025 8.60466V15.0009C2.50025 24.4547 14.0002 29.6759 14.4927 29.8934C14.6525 29.9644 14.8254 30.0011 15.0002 30.0011C15.1751 30.0011 15.348 29.9644 15.5077 29.8934C16.0002 29.6759 27.5002 24.4547 27.5002 15.0009V8.60466C27.5015 7.29265 27.0892 6.01362 26.3219 4.9493C25.5547 3.88498 24.4716 3.08951 23.2265 2.67591ZM25.0002 15.0009C25.0002 21.8197 17.1015 26.2922 15.0002 27.3622C12.8965 26.2959 5.00025 21.8372 5.00025 15.0009V8.60466C5.00023 7.81766 5.24782 7.0506 5.70795 6.41213C6.16807 5.77365 6.81741 5.29612 7.564 5.04716L15.0002 2.56841L22.4352 5.04716C23.1821 5.2959 23.8317 5.77334 24.292 6.41184C24.7524 7.05034 25.0002 7.81751 25.0002 8.60466V15.0009Z" fill="#DBF227"/>
<g clip-path="url(#clip1_142_135)">
<path d="M18.3334 13C18.0778 12.9999 17.8256 13.0588 17.5964 13.1719C17.3672 13.2851 17.1672 13.4495 17.0118 13.6525L16.9826 13.64C17.0972 13.285 17.1144 12.9058 17.0323 12.5419C16.9503 12.178 16.7721 11.8428 16.5162 11.5713C16.2604 11.2998 15.9364 11.102 15.578 10.9985C15.2196 10.895 14.84 10.8896 14.4788 10.9829L14.4409 10.9112C14.7436 10.642 14.9376 10.2715 14.9868 9.86943C15.0359 9.46731 14.9367 9.06108 14.7077 8.72687C14.4787 8.39266 14.1358 8.15342 13.7431 8.05398C13.3503 7.95454 12.9348 8.00173 12.5744 8.1867C12.214 8.37167 11.9334 8.68172 11.7852 9.05876C11.637 9.43579 11.6314 9.85393 11.7695 10.2348C11.9075 10.6157 12.1797 10.9331 12.535 11.1277C12.8903 11.3222 13.3044 11.3805 13.6997 11.2917L13.7301 11.3487C13.3134 11.6685 13.0332 12.134 12.9455 12.6518C12.8579 13.1696 12.9694 13.7014 13.2576 14.1404L12.4722 14.875C12.1172 14.6789 11.7028 14.6189 11.3068 14.7064C10.9107 14.7938 10.5601 15.0227 10.3208 15.3501C10.0814 15.6776 9.9696 16.081 10.0064 16.485C10.0432 16.8889 10.226 17.2655 10.5206 17.5443C10.8151 17.8231 11.2013 17.9849 11.6066 17.9994C12.012 18.0139 12.4087 17.8801 12.7224 17.6231C13.0362 17.366 13.2454 17.0034 13.3109 16.6031C13.3765 16.2029 13.2938 15.7924 13.0784 15.4487L13.8443 14.7329C14.2649 15.014 14.7735 15.1323 15.275 15.0655C15.7765 14.9987 16.2365 14.7514 16.5688 14.37L16.6851 14.4196C16.6347 14.756 16.6884 15.0998 16.8391 15.4048C16.9897 15.7099 17.2302 15.9615 17.528 16.1258C17.8259 16.2902 18.1669 16.3595 18.5053 16.3244C18.8436 16.2893 19.1632 16.1515 19.421 15.9295C19.6787 15.7075 19.8624 15.412 19.9473 15.0825C20.0322 14.7531 20.0142 14.4056 19.8958 14.0866C19.7774 13.7677 19.5643 13.4926 19.285 13.2984C19.0057 13.1041 18.6736 13 18.3334 13ZM12.5001 9.66666C12.5001 9.50184 12.549 9.34073 12.6405 9.20369C12.7321 9.06664 12.8623 8.95983 13.0145 8.89676C13.1668 8.83369 13.3343 8.81718 13.496 8.84934C13.6577 8.88149 13.8061 8.96086 13.9227 9.0774C14.0392 9.19395 14.1186 9.34243 14.1507 9.50409C14.1829 9.66574 14.1664 9.83329 14.1033 9.98556C14.0403 10.1378 13.9334 10.268 13.7964 10.3596C13.6594 10.4511 13.4982 10.5 13.3334 10.5C13.1124 10.5 12.9004 10.4122 12.7442 10.2559C12.5879 10.0996 12.5001 9.88767 12.5001 9.66666ZM11.6668 17.1667C11.5019 17.1667 11.3408 17.1178 11.2038 17.0262C11.0667 16.9347 10.9599 16.8045 10.8969 16.6522C10.8338 16.5 10.8173 16.3324 10.8494 16.1708C10.8816 16.0091 10.961 15.8606 11.0775 15.7441C11.194 15.6275 11.3425 15.5482 11.5042 15.516C11.6658 15.4839 11.8334 15.5004 11.9857 15.5634C12.1379 15.6265 12.2681 15.7333 12.3596 15.8704C12.4512 16.0074 12.5001 16.1685 12.5001 16.3333C12.5001 16.5543 12.4123 16.7663 12.256 16.9226C12.0997 17.0789 11.8878 17.1667 11.6668 17.1667ZM15.0001 14.25C14.7295 14.2495 14.4665 14.1612 14.2504 13.9984C14.0343 13.8356 13.8769 13.6071 13.8017 13.3472C13.7266 13.0873 13.7378 12.81 13.8337 12.557C13.9295 12.304 14.1049 12.089 14.3334 11.9442L14.503 11.8537C14.6734 11.7796 14.8582 11.7444 15.0439 11.7507C15.2296 11.757 15.4116 11.8046 15.5766 11.8901C15.7416 11.9756 15.8855 12.0967 15.9977 12.2448C16.11 12.3929 16.1878 12.5641 16.2256 12.7461C16.2633 12.928 16.26 13.1161 16.2159 13.2966C16.1718 13.4771 16.088 13.6456 15.9706 13.7896C15.8533 13.9337 15.7052 14.0497 15.5373 14.1294C15.3694 14.209 15.1859 14.2502 15.0001 14.25ZM18.3334 15.5C18.1686 15.5 18.0075 15.4511 17.8705 15.3596C17.7334 15.268 17.6266 15.1378 17.5635 14.9856C17.5005 14.8333 17.4839 14.6657 17.5161 14.5041C17.5483 14.3424 17.6276 14.1939 17.7442 14.0774C17.8607 13.9609 18.0092 13.8815 18.1708 13.8493C18.3325 13.8172 18.5001 13.8337 18.6523 13.8968C18.8046 13.9598 18.9347 14.0666 19.0263 14.2037C19.1179 14.3407 19.1668 14.5018 19.1668 14.6667C19.1668 14.8877 19.079 15.0996 18.9227 15.2559C18.7664 15.4122 18.5544 15.5 18.3334 15.5Z" fill="#DBF227"/>
</g>
</g>
<defs>
<clipPath id="clip0_142_135">
<rect width="30" height="30" fill="white"/>
</clipPath>
<clipPath id="clip1_142_135">
<rect width="10" height="10" fill="white" transform="translate(10 8)"/>
</clipPath>
</defs>
</svg>
