<svg width="46" height="46" viewBox="0 0 46 46" fill="none" xmlns="http://www.w3.org/2000/svg">
<g clip-path="url(#clip0_130_192)">
<path d="M26.833 46.0016C25.3222 46.0063 23.8255 45.7109 22.4297 45.1325C21.034 44.5541 19.7671 43.7041 18.7025 42.6321C16.5582 40.4694 15.3552 37.5471 15.3552 34.5016C15.3552 31.4561 16.5582 28.5338 18.7025 26.3711L26.833 17.7518L35.0038 26.4094C37.1292 28.5768 38.3165 31.4934 38.3089 34.529C38.3014 37.5646 37.0997 40.4753 34.9635 42.6321C33.8989 43.7041 32.632 44.5541 31.2363 45.1325C29.8405 45.7109 28.3438 46.0063 26.833 46.0016ZM9.583 23.0016C8.3241 23.0047 7.07709 22.7581 5.9141 22.2761C4.75112 21.7942 3.69525 21.0864 2.80759 20.1937C1.02125 18.3911 0.019043 15.956 0.019043 13.4183C0.019043 10.8805 1.02125 8.44541 2.80759 6.64285L9.583 0.0150146L16.3431 6.62751C18.1371 8.42821 19.1456 10.8656 19.1485 13.4074C19.1513 15.9493 18.1483 18.3889 16.3584 20.1937C15.4709 21.0866 14.4151 21.7946 13.2521 22.2766C12.0891 22.7586 10.8419 23.005 9.583 23.0016ZM38.333 19.1683C37.3259 19.1709 36.3282 18.9737 35.3978 18.5881C34.4674 18.2025 33.6227 17.6362 32.9127 16.9219C31.4833 15.48 30.6814 13.5319 30.6814 11.5016C30.6814 9.47129 31.4833 7.52317 32.9127 6.08126L38.2985 0.0955146L43.8147 6.14452C45.2154 7.59237 45.9934 9.53124 45.9819 11.5457C45.9704 13.5602 45.1704 15.4901 43.7533 16.9219C43.0433 17.6362 42.1986 18.2025 41.2682 18.5881C40.3378 18.9737 39.3401 19.1709 38.333 19.1683Z" fill="#005C53"/>
</g>
<defs>
<clipPath id="clip0_130_192">
<rect width="46" height="46" fill="white"/>
</clipPath>
</defs>
</svg>
