<svg width="46" height="46" viewBox="0 0 46 46" fill="none" xmlns="http://www.w3.org/2000/svg">
<g clip-path="url(#clip0_130_212)">
<path d="M23 7.66667V9.58333C23 11.6167 22.1923 13.5667 20.7545 15.0045C19.3167 16.4423 17.3667 17.25 15.3333 17.25H13.4167V21.0833H17.25C17.7583 21.0833 18.2458 21.2853 18.6053 21.6447C18.9647 22.0042 19.1667 22.4917 19.1667 23C19.1667 23.5083 18.9647 23.9958 18.6053 24.3553C18.2458 24.7147 17.7583 24.9167 17.25 24.9167H5.75C5.24167 24.9167 4.75416 24.7147 4.39471 24.3553C4.03527 23.9958 3.83333 23.5083 3.83333 23C3.83333 22.4917 4.03527 22.0042 4.39471 21.6447C4.75416 21.2853 5.24167 21.0833 5.75 21.0833H9.58333V17.25H7.66667C5.63334 17.25 3.68329 16.4423 2.24551 15.0045C0.807736 13.5667 0 11.6167 0 9.58333V7.66667C0 5.63334 0.807736 3.68329 2.24551 2.24551C3.68329 0.807736 5.63334 0 7.66667 0L15.3333 0C17.3667 0 19.3167 0.807736 20.7545 2.24551C22.1923 3.68329 23 5.63334 23 7.66667ZM28.75 9.58333H32.5833C33.0917 9.58333 33.5792 9.78527 33.9386 10.1447C34.2981 10.5042 34.5 10.9917 34.5 11.5V15.3333C34.5 15.8417 34.7019 16.3292 35.0614 16.6886C35.4208 17.0481 35.9083 17.25 36.4167 17.25C36.925 17.25 37.4125 17.0481 37.772 16.6886C38.1314 16.3292 38.3333 15.8417 38.3333 15.3333V11.5C38.3333 9.97501 37.7275 8.51247 36.6492 7.43414C35.5709 6.3558 34.1083 5.75 32.5833 5.75H28.75C28.2417 5.75 27.7542 5.95193 27.3947 6.31138C27.0353 6.67082 26.8333 7.15833 26.8333 7.66667C26.8333 8.175 27.0353 8.66251 27.3947 9.02195C27.7542 9.3814 28.2417 9.58333 28.75 9.58333ZM21.0833 36.4167H15.3333C14.825 36.4167 14.3375 36.2147 13.978 35.8553C13.6186 35.4958 13.4167 35.0083 13.4167 34.5V30.6667C13.4167 30.1583 13.2147 29.6708 12.8553 29.3114C12.4958 28.9519 12.0083 28.75 11.5 28.75C10.9917 28.75 10.5042 28.9519 10.1447 29.3114C9.78527 29.6708 9.58333 30.1583 9.58333 30.6667V34.5C9.58333 36.025 10.1891 37.4875 11.2675 38.5659C12.3458 39.6442 13.8083 40.25 15.3333 40.25H21.0833C21.5917 40.25 22.0792 40.0481 22.4386 39.6886C22.7981 39.3292 23 38.8417 23 38.3333C23 37.825 22.7981 37.3375 22.4386 36.978C22.0792 36.6186 21.5917 36.4167 21.0833 36.4167ZM46 28.75V38.3333C46 40.3667 45.1923 42.3167 43.7545 43.7545C42.3167 45.1923 40.3667 46 38.3333 46H34.5C32.4667 46 30.5166 45.1923 29.0788 43.7545C27.6411 42.3167 26.8333 40.3667 26.8333 38.3333V28.75C26.8333 26.7167 27.6411 24.7666 29.0788 23.3288C30.5166 21.8911 32.4667 21.0833 34.5 21.0833H38.3333C40.3667 21.0833 42.3167 21.8911 43.7545 23.3288C45.1923 24.7666 46 26.7167 46 28.75ZM38.3333 38.3333C38.3333 37.9543 38.2209 37.5837 38.0103 37.2685C37.7997 36.9533 37.5004 36.7076 37.1501 36.5626C36.7999 36.4175 36.4145 36.3795 36.0427 36.4535C35.6709 36.5275 35.3294 36.71 35.0614 36.978C34.7933 37.2461 34.6108 37.5876 34.5368 37.9594C34.4629 38.3312 34.5008 38.7166 34.6459 39.0668C34.791 39.417 35.0366 39.7164 35.3518 39.927C35.667 40.1376 36.0376 40.25 36.4167 40.25C36.925 40.25 37.4125 40.0481 37.772 39.6886C38.1314 39.3292 38.3333 38.8417 38.3333 38.3333Z" fill="#005C53"/>
</g>
<defs>
<clipPath id="clip0_130_212">
<rect width="46" height="46" fill="white"/>
</clipPath>
</defs>
</svg>
