<svg width="80" height="80" viewBox="0 0 80 80" fill="none" xmlns="http://www.w3.org/2000/svg">
<g clip-path="url(#clip0_133_103)">
<path d="M46.6666 43.3333C46.6719 44.5048 46.3684 45.657 45.7866 46.6739C45.2049 47.6908 44.3655 48.5364 43.3529 49.1256C42.3403 49.7148 41.1904 50.0268 40.0189 50.0301C38.8474 50.0334 37.6957 49.7279 36.6798 49.1445C35.6639 48.561 34.8197 47.7202 34.2322 46.7066C33.6447 45.693 33.3347 44.5426 33.3333 43.371C33.332 42.1995 33.6394 41.0483 34.2246 40.0334C34.8098 39.0185 35.652 38.1757 36.6666 37.59V23.3333C36.6666 22.4493 37.0178 21.6014 37.6429 20.9763C38.268 20.3512 39.1159 20 39.9999 20C40.884 20 41.7318 20.3512 42.357 20.9763C42.9821 21.6014 43.3333 22.4493 43.3333 23.3333V37.59C44.3437 38.171 45.1835 39.0075 45.7686 40.0155C46.3536 41.0236 46.6633 42.1678 46.6666 43.3333ZM66.8666 18.4633C71.7233 23.6926 74.9484 30.2255 76.1463 37.261C77.3443 44.2964 76.4631 51.5286 73.6107 58.0705C70.7584 64.6124 66.0589 70.1797 60.0886 74.0898C54.1183 77.9998 47.1367 80.0825 39.9999 80.0825C32.8632 80.0825 25.8816 77.9998 19.9113 74.0898C13.941 70.1797 9.24152 64.6124 6.38916 58.0705C3.5368 51.5286 2.65557 44.2964 3.85353 37.261C5.0515 30.2255 8.27658 23.6926 13.1333 18.4633L10.8933 15.9733C9.53608 16.451 8.10529 16.6858 6.66661 16.6666C5.78255 16.6666 4.9347 16.3155 4.30958 15.6903C3.68446 15.0652 3.33327 14.2174 3.33327 13.3333C3.33327 12.4493 3.68446 11.6014 4.30958 10.9763C4.9347 10.3512 5.78255 9.99998 6.66661 9.99998C9.28327 9.99998 9.99994 9.28331 9.99994 6.66664C9.99994 5.78259 10.3511 4.93474 10.9762 4.30962C11.6014 3.6845 12.4492 3.33331 13.3333 3.33331C14.2173 3.33331 15.0652 3.6845 15.6903 4.30962C16.3154 4.93474 16.6666 5.78259 16.6666 6.66664C16.686 8.28874 16.3682 9.89718 15.7333 11.39L18.0866 14.0033C23.4936 9.93422 29.9276 7.4525 36.6666 6.83664V3.33331C36.6666 2.44925 37.0178 1.60141 37.6429 0.976286C38.268 0.351165 39.1159 -2.47955e-05 39.9999 -2.47955e-05C40.884 -2.47955e-05 41.7318 0.351165 42.357 0.976286C42.9821 1.60141 43.3333 2.44925 43.3333 3.33331V6.83664C50.0719 7.45152 56.5059 9.93208 61.9133 14L64.2666 11.3866C63.6321 9.89487 63.3143 8.28762 63.3333 6.66664C63.3333 5.78259 63.6845 4.93474 64.3096 4.30962C64.9347 3.6845 65.7825 3.33331 66.6666 3.33331C67.5507 3.33331 68.3985 3.6845 69.0236 4.30962C69.6488 4.93474 69.9999 5.78259 69.9999 6.66664C69.9999 9.28331 70.7166 9.99998 73.3333 9.99998C74.2173 9.99998 75.0652 10.3512 75.6903 10.9763C76.3154 11.6014 76.6666 12.4493 76.6666 13.3333C76.6666 14.2174 76.3154 15.0652 75.6903 15.6903C75.0652 16.3155 74.2173 16.6666 73.3333 16.6666C71.8946 16.6858 70.4638 16.451 69.1066 15.9733L66.8666 18.4633ZM69.9999 43.3333C69.9999 37.3999 68.2405 31.5997 64.944 26.6662C61.6476 21.7327 56.9622 17.8876 51.4804 15.6169C45.9987 13.3463 39.9667 12.7522 34.1472 13.9098C28.3278 15.0673 22.9823 17.9245 18.7867 22.1201C14.5912 26.3157 11.7339 31.6612 10.5764 37.4806C9.41882 43.3 10.0129 49.332 12.2836 54.8138C14.5542 60.2956 18.3994 64.981 23.3328 68.2774C28.2663 71.5738 34.0665 73.3333 39.9999 73.3333C47.9537 73.3245 55.5792 70.161 61.2034 64.5368C66.8276 58.9126 69.9911 51.2871 69.9999 43.3333Z" fill="#9FC131"/>
</g>
<defs>
<clipPath id="clip0_133_103">
<rect width="80" height="80" fill="white"/>
</clipPath>
</defs>
</svg>
