<svg width="80" height="80" viewBox="0 0 80 80" fill="none" xmlns="http://www.w3.org/2000/svg">
<g clip-path="url(#clip0_133_116)">
<path d="M40 0C32.0888 0 24.3552 2.34596 17.7772 6.74122C11.1992 11.1365 6.07234 17.3836 3.04484 24.6927C0.0173314 32.0017 -0.774802 40.0444 0.768607 47.8036C2.31202 55.5629 6.12165 62.6902 11.7157 68.2843C17.3098 73.8784 24.4372 77.688 32.1964 79.2314C39.9557 80.7748 47.9983 79.9827 55.3074 76.9552C62.6164 73.9277 68.8635 68.8008 73.2588 62.2228C77.6541 55.6449 80 47.9113 80 40C79.9886 29.3949 75.7706 19.2274 68.2716 11.7284C60.7727 4.22943 50.6052 0.0114703 40 0V0ZM40 73.3333C33.4073 73.3333 26.9627 71.3784 21.481 67.7157C15.9994 64.0529 11.727 58.847 9.20403 52.7561C6.68111 46.6653 6.021 39.963 7.30718 33.497C8.59335 27.031 11.768 21.0915 16.4298 16.4298C21.0915 11.768 27.031 8.59333 33.497 7.30716C39.963 6.02098 46.6653 6.6811 52.7561 9.20402C58.847 11.7269 64.053 15.9994 67.7157 21.481C71.3784 26.9626 73.3334 33.4073 73.3334 40C73.3237 48.8376 69.8086 57.3104 63.5595 63.5595C57.3104 69.8086 48.8376 73.3236 40 73.3333Z" fill="#005C53"/>
<path d="M33.412 48.8148L33.4134 48.8133L56.4436 25.7848C56.4437 25.7847 56.4438 25.7847 56.4438 25.7846C56.6915 25.5359 56.9859 25.3386 57.3101 25.204C57.6343 25.0693 57.9819 25 58.333 25C58.6841 25 59.0317 25.0693 59.3559 25.204C59.6801 25.3387 59.9746 25.536 60.2223 25.7848C60.4696 26.032 60.6658 26.3255 60.7998 26.6484C60.9343 26.9724 61.0035 27.3197 61.0035 27.6705C61.0035 28.0212 60.9343 28.3686 60.7998 28.6925C60.6655 29.0161 60.4688 29.3101 60.2208 29.5577L33.412 48.8148ZM33.412 48.8148C33.35 48.877 33.2764 48.9263 33.1954 48.96C33.1143 48.9936 33.0274 49.011 32.9396 49.011C32.8519 49.011 32.765 48.9936 32.6839 48.96C32.6029 48.9263 32.5293 48.877 32.4673 48.8148L32.4663 48.8137L23.5606 39.8998C23.5605 39.8997 23.5604 39.8996 23.5603 39.8995C23.3126 39.6509 23.0183 39.4536 22.6942 39.319C22.37 39.1843 22.0224 39.115 21.6713 39.115C21.3202 39.115 20.9726 39.1843 20.6484 39.319C20.3248 39.4534 20.0308 39.6503 19.7833 39.8984C19.5353 40.1459 19.3384 40.4398 19.204 40.7634C19.0693 41.0876 19 41.4352 19 41.7863C19 42.1374 19.0693 42.485 19.204 42.8092L20.1249 42.4267L19.204 42.8092C19.3386 43.1332 19.5357 43.4274 19.7842 43.6751C19.7844 43.6753 19.7846 43.6755 19.7848 43.6756L28.6934 52.5827L28.694 52.5832C29.8214 53.7086 31.3492 54.3406 32.9421 54.3406C34.535 54.3406 36.0629 53.7086 37.1903 52.5832L37.1908 52.5827L60.22 29.5585L33.412 48.8148Z" fill="#005C53" stroke="#005C53" stroke-width="2"/>
</g>
<defs>
<clipPath id="clip0_133_116">
<rect width="80" height="80" fill="white"/>
</clipPath>
</defs>
</svg>
