<svg width="80" height="80" viewBox="0 0 80 80" fill="none" xmlns="http://www.w3.org/2000/svg">
<g clip-path="url(#clip0_135_66)">
<path d="M40 0C32.0888 0 24.3552 2.34596 17.7772 6.74122C11.1992 11.1365 6.07234 17.3836 3.04484 24.6927C0.0173314 32.0017 -0.774802 40.0444 0.768607 47.8036C2.31202 55.5629 6.12165 62.6902 11.7157 68.2843C17.3098 73.8784 24.4372 77.688 32.1964 79.2314C39.9556 80.7748 47.9983 79.9827 55.3074 76.9552C62.6164 73.9277 68.8635 68.8008 73.2588 62.2228C77.6541 55.6448 80 47.9113 80 40C79.9885 29.3949 75.7706 19.2274 68.2716 11.7284C60.7727 4.22943 50.6052 0.0114703 40 0V0ZM40 73.3333C33.4073 73.3333 26.9626 71.3784 21.481 67.7157C15.9994 64.0529 11.727 58.847 9.20403 52.7561C6.68111 46.6652 6.021 39.963 7.30718 33.497C8.59335 27.031 11.768 21.0915 16.4298 16.4298C21.0915 11.768 27.031 8.59333 33.497 7.30716C39.963 6.02098 46.6653 6.6811 52.7561 9.20402C58.847 11.7269 64.053 15.9994 67.7157 21.481C71.3784 26.9626 73.3334 33.4073 73.3334 40C73.3236 48.8376 69.8086 57.3104 63.5595 63.5595C57.3104 69.8086 48.8376 73.3236 40 73.3333Z" fill="#9FC131"/>
<path d="M40.0006 16.6672C39.1165 16.6672 38.2687 17.0184 37.6436 17.6435C37.0184 18.2686 36.6672 19.1165 36.6672 20.0005V46.6672C36.6672 47.5512 37.0184 48.3991 37.6436 49.0242C38.2687 49.6493 39.1165 50.0005 40.0006 50.0005C40.8846 50.0005 41.7325 49.6493 42.3576 49.0242C42.9827 48.3991 43.3339 47.5512 43.3339 46.6672V20.0005C43.3339 19.1165 42.9827 18.2686 42.3576 17.6435C41.7325 17.0184 40.8846 16.6672 40.0006 16.6672Z" fill="#9FC131"/>
<path d="M43.3339 60.0005C43.3339 58.1596 41.8415 56.6672 40.0006 56.6672C38.1596 56.6672 36.6672 58.1596 36.6672 60.0005C36.6672 61.8415 38.1596 63.3339 40.0006 63.3339C41.8415 63.3339 43.3339 61.8415 43.3339 60.0005Z" fill="#9FC131"/>
</g>
<defs>
<clipPath id="clip0_135_66">
<rect width="80" height="80" fill="white"/>
</clipPath>
</defs>
</svg>
